# xmcd
#
# Track frame offsets: 
#        150
#        20017
#        37827
#        51085
#        74337
#        92595
#        114652
#        135817
#        150992
#        171402
#        191315
#        208507
#        225012
#        243402
#        258217
#
# Disc length: 3606 seconds
#
# Revision: 1
# Processed by: cddbd v1.5.2PL0 Copyright (c) Steve Scherf et al.
# Submitted via: ExactAudioCopy v1.0b2
#
DISCID=b10e140f
DTITLE=Shelly - Snow Rose eXcel
DYEAR=2002
DGENRE=
TTITLE0=I Swear
TTITLE1=Every Breath You Take
TTITLE2=I'd Like to Teach the World to Sing
TTITLE3=Reality
TTITLE4=Especially for You
TTITLE5=Have I Told You Lately
TTITLE6=Memory
TTITLE7=Eternal Flame
TTITLE8=Somewhere Out There
TTITLE9=All I Ask of You
TTITLE10=Stories
TTITLE11=When I Need You
TTITLE12=Have You Ever Been Mellow
TTITLE13=Your Eyes
TTITLE14=Speak Softly with Love
EXTD=
EXTT0=
EXTT1=
EXTT2=
EXTT3=
EXTT4=
EXTT5=
EXTT6=
EXTT7=
EXTT8=
EXTT9=
EXTT10=
EXTT11=
EXTT12=
EXTT13=
EXTT14=
PLAYORDER=
